<?xml version="1.0" encoding="UTF-8" standalone="no"?>
<svg
   version="1.1"
   id="Layer_1"
   x="0px"
   y="0px"
   width="822"
   viewBox="0 0 822 822"
   enable-background="new 0 0 1024 1024"
   xml:space="preserve"
   sodipodi:docname="file.svg"
   height="822"
   inkscape:version="1.4 (86a8ad7, 2024-10-11)"
   xmlns:inkscape="http://www.inkscape.org/namespaces/inkscape"
   xmlns:sodipodi="http://sodipodi.sourceforge.net/DTD/sodipodi-0.dtd"
   xmlns="http://www.w3.org/2000/svg"
   xmlns:svg="http://www.w3.org/2000/svg"><defs
   id="defs10" /><sodipodi:namedview
   id="namedview10"
   pagecolor="#ffffff"
   bordercolor="#000000"
   borderopacity="0.25"
   inkscape:showpageshadow="2"
   inkscape:pageopacity="0.0"
   inkscape:pagecheckerboard="0"
   inkscape:deskcolor="#d1d1d1"
   inkscape:zoom="0.88964844"
   inkscape:cx="423.7629"
   inkscape:cy="433.31723"
   inkscape:window-width="1920"
   inkscape:window-height="1171"
   inkscape:window-x="-9"
   inkscape:window-y="-9"
   inkscape:window-maximized="1"
   inkscape:current-layer="Layer_1" />









<g
   id="g10"
   inkscape:export-filename="CLASS-robot.svg"
   inkscape:export-xdpi="96"
   inkscape:export-ydpi="96"
   transform="translate(-100.03951,-102.28759)"><path
     fill="#000000"
     opacity="1"
     stroke="none"
     d="m 359.55218,528.38531 c -10.1221,-12.72955 -13.04702,-27.44537 -13.8525,-42.78805 -0.27924,-5.3186 -0.0409,-10.66394 -0.0543,-15.99704 -0.018,-7.22421 -0.0254,-7.29709 -7.07767,-7.19812 -4.68369,0.0657 -9.33173,-0.0528 -13.81207,-1.54214 -9.42759,-3.13379 -14.7435,-10.88669 -15.00507,-23.04255 -0.30823,-14.32614 -0.2052,-28.66531 -0.0337,-42.99588 0.0909,-7.59027 4.5112,-13.29376 11.67929,-15.7948 5.88434,-2.05319 11.9964,-2.88238 18.18076,-2.31884 4.93728,0.44989 6.41168,-1.56305 6.14392,-6.28 -0.4726,-8.3259 0.45266,-16.61551 2.00021,-24.78992 4.2066,-22.21933 27.37546,-43.28793 49.86594,-46.07764 9.32174,-1.15625 18.6134,-0.8392 27.92093,-0.87979 23.33197,-0.10171 46.66565,-0.15506 69.99621,0.0511 4.80234,0.0424 6.44022,-1.42649 6.2352,-6.2478 -0.3396,-7.98526 -0.21646,-15.99823 -0.0342,-23.99375 0.0742,-3.25393 -1.08206,-5.02414 -3.9776,-6.62735 -13.23129,-7.32599 -19.59735,-21.81151 -16.13422,-35.92741 3.62912,-14.7923 15.56909,-24.56551 30.86032,-25.26004 17.02246,-0.7732 31.62647,12.43161 32.95289,29.46203 1.11614,14.33087 -4.74952,24.82679 -17.01233,31.77819 -3.06226,1.7359 -4.21149,3.65133 -4.12311,7.07241 0.20221,7.82773 0.31329,15.67557 -0.0342,23.4932 -0.21057,4.73636 1.18567,6.30826 6.10834,6.27008 28.16381,-0.21863 56.33813,0.30493 84.49328,-0.23404 22.49524,-0.43057 39.90582,8.77393 53.64539,25.78525 6.62445,8.20187 9.96826,17.82019 11.00042,28.42172 0.63123,6.48373 0.84009,12.93741 0.77332,19.41126 -0.0371,3.59518 1.60083,4.5848 4.87976,4.55609 4.96399,-0.0435 9.90137,-0.28089 14.87604,0.87726 9.86297,2.29614 16.06091,9.01309 16.23773,19.28552 0.25519,14.82834 0.33313,29.67029 -0.008,44.49505 -0.28681,12.4693 -8.54969,20.18091 -21.59668,20.98258 -2.15912,0.13263 -4.33173,0.0626 -6.49811,0.0595 -7.79212,-0.0111 -7.79407,-0.0155 -7.79828,8.01419 -0.003,6.16641 -0.0937,12.3345 0.0149,18.49899 0.47077,26.71485 -12.80554,45.01923 -35.3648,57.46521 -8.87861,4.89826 -18.53779,7.11163 -28.77039,7.02985 -17.33148,-0.13849 -34.66583,0.0802 -51.99701,-0.0713 -4.41034,-0.0385 -6.12347,1.17114 -6.01782,5.95233 0.27728,12.54633 0.0463,12.55713 12.78088,12.56928 18.49921,0.0176 37.00006,0.18084 55.49719,-0.008 16.38568,-0.16699 30.49176,4.60584 40.97376,17.77381 1.92114,2.41357 4.3659,2.07922 6.80884,2.06109 10.81366,-0.0801 21.39825,1.18555 30.64801,7.23249 12.31262,8.04913 18.99719,19.68774 20.43206,34.33581 1.77485,18.11902 0.39631,36.29151 0.98359,54.42725 0.14062,4.34381 -1.20899,5.84008 -5.64118,5.81903 -4.94653,-0.0236 -9.92773,0.73712 -14.83887,1.50677 -5.41851,0.84906 -6.19757,0.42224 -6.20696,-5.0368 -0.0293,-16.99927 0.0206,-33.99866 -0.0223,-50.99786 -0.0213,-8.44013 -2.95832,-15.3075 -10.95905,-19.21711 -1.64111,-0.80182 -3.35632,-1.30835 -5.25,-1.44091 -3.77374,-0.26398 -5.1991,0.96417 -5.16504,5.05328 0.1958,23.49743 -4.9e-4,46.99805 0.19751,70.49542 0.0352,4.17212 -1.37341,5.90625 -5.36041,6.68445 -6.49219,1.26715 -12.88654,3.03564 -19.18012,4.55817 -1.89593,-1.97254 -1.22265,-4.06855 -1.22717,-5.96186 -0.0602,-24.99871 -0.0575,-49.99756 -0.075,-74.9964 -0.0115,-16.5202 -9.16992,-25.76519 -25.56299,-25.77294 -16.83264,-0.008 -33.68555,-0.51453 -50.49396,0.12835 -40.81537,1.5611 -81.63247,0.36444 -122.44638,0.65436 -18.46914,0.1311 -36.9429,-0.6142 -55.41611,-0.75189 -16.35488,-0.12189 -25.32479,8.95385 -25.35092,25.367 -0.0401,25.16535 -0.0152,50.33087 -0.0387,75.49628 -0.006,6.53912 -0.11841,6.60278 -6.44547,5.0946 -4.84832,-1.15564 -9.6506,-2.58465 -14.55536,-3.39728 -3.74798,-0.62097 -4.74765,-2.36383 -4.72503,-6.00891 0.14377,-23.16479 0.0752,-46.33093 0.0549,-69.49664 -0.007,-7.41479 -2.71604,-9.00451 -9.4079,-5.70373 -9.68976,4.77954 -11.57541,13.47705 -11.64462,23.06176 -0.11911,16.4925 -0.16379,32.98542 -0.26331,49.47803 -0.006,0.97278 -0.2218,1.94428 -0.39523,3.37091 -7.89646,-0.83044 -15.58576,-1.59845 -23.26285,-2.47388 -2.03848,-0.23242 -1.96579,-2.0047 -1.96646,-3.49432 -0.009,-19.33234 -0.65381,-38.69409 0.20508,-57.98865 0.84546,-18.99267 17.50491,-35.83911 36.51403,-39.08026 5.30921,-0.90515 10.59879,-0.97595 15.91648,-0.90564 2.53299,0.0334 4.31396,-0.75683 6.01703,-2.73303 10.46786,-12.14642 23.91531,-17.35748 39.82754,-17.19849 20.33048,0.20313 40.66443,0.067 60.99689,0.0577 6.76856,-0.003 6.94397,-0.1181 6.88113,-7.05682 -0.12594,-13.89343 0.90552,-11.23615 -11.48559,-11.37451 -13.66449,-0.15265 -27.35373,-0.54364 -40.99304,0.0574 -22.62574,0.99689 -40.22632,-8.37952 -55.01777,-25.08289 M 631.33771,327.03677 c -3.8266,-1.25332 -7.73889,-1.71963 -11.77582,-1.68167 -11.14593,0.10486 -22.29327,0.0713 -33.44006,0.0703 -59.63935,-0.005 -119.2789,-0.10241 -178.91797,0.033 -14.81049,0.0336 -25.03482,7.4278 -31.06,20.98157 -3.06412,6.89279 -3.69449,14.15711 -3.72153,21.42011 -0.15002,40.28683 -0.15298,80.5722 0.8357,120.85605 0.53854,21.94424 17.09652,38.84683 39.06152,38.9711 20.3194,0.11499 40.6387,0.39203 60.95779,0.36773 48.14118,-0.0575 96.28217,-0.24487 144.4231,-0.41809 1.63812,-0.006 3.30157,-0.3056 4.90802,-0.66858 18.00098,-4.06701 31.46454,-20.70758 31.23016,-39.88077 -0.51306,-41.97491 -0.39361,-83.9613 -0.11749,-125.94027 0.1073,-16.31623 -7.35834,-27.08591 -22.38342,-34.11051 z"
     id="path1" /><path
     fill="#000000"
     opacity="1"
     stroke="none"
     d="m 451.40497,751.52936 c 21.03659,12.12195 39.38312,26.82416 53.53848,46.31061 2.99317,4.12042 5.49289,8.5993 8.48831,13.33752 13.46082,-26.41083 34.93622,-43.97424 59.224,-58.54785 22.19928,-13.32044 46.6983,-20.982 71.42395,-27.85486 30.27106,-8.41424 61.0473,-14.56525 92.15363,-18.89844 14.12378,-1.96753 28.36645,-3.00982 42.48761,-5.18152 11.00085,-1.69183 14.88122,2.06702 14.58917,13.03083 -0.47437,17.80578 -1.1228,35.60272 -1.11188,53.42407 0.003,4.9455 1.77655,6.62787 6.21381,7.5592 6.3288,1.32831 12.56494,3.16211 18.76184,5.03986 10.06549,3.04993 12.99249,7.09674 13.06775,17.87231 0.0967,13.83112 0.24823,27.66596 0.012,41.49298 -0.0766,4.48182 1.41486,5.80445 5.73932,5.62995 4.43897,-0.17908 8.95929,-0.70856 13.36145,0.89142 7.77918,2.82763 11.25989,8.76678 9.91217,17.31268 -1.00299,6.35998 -5.96179,10.3031 -13.85724,10.3526 -11.65991,0.0731 -23.32245,-0.1676 -34.98303,-0.33429 -57.31201,-0.81891 -114.62775,-0.65057 -171.94293,-0.75818 -20.98133,-0.0394 -41.96161,-0.55554 -62.943,-0.80108 -6.51806,-0.0763 -12.94213,0.763 -19.22692,2.53289 -14.83826,4.17853 -23.4361,15.1919 -30.33472,27.94971 -2.52258,4.66516 -5.57117,8.22748 -11.32788,8.48657 -7.02106,0.31604 -10.59058,-2.23694 -14.13254,-9.5188 -7.08475,-14.56536 -18.02722,-24.62835 -34.25064,-28.01477 -4.04596,-0.84448 -8.24661,-1.44751 -12.36325,-1.37939 -74.64682,1.23578 -149.29981,0.68707 -223.9498,0.93787 -16.31084,0.0548 -32.61897,0.78338 -48.93022,0.87829 -11.29677,0.0657 -17.45055,-9.55402 -13.12373,-20.02246 2.38461,-5.76947 7.26118,-7.99182 13.03904,-8.54059 2.97364,-0.28229 6.01435,-0.28564 8.98967,-0.0209 4.29343,0.38196 5.89377,-1.12158 5.80879,-5.60834 -0.24926,-13.16046 -0.10089,-26.32873 -0.0838,-39.49396 0.0176,-13.59985 2.44982,-16.96155 15.30866,-20.74121 6.05716,-1.78039 12.12808,-3.63287 18.31529,-4.80694 3.68399,-0.69904 4.41589,-2.3592 4.43394,-5.70551 0.096,-17.82294 -0.30946,-35.6308 -0.91819,-53.44177 -0.4016,-11.74964 4.21443,-16.17774 15.88209,-14.06531 19.972,3.61603 40.30388,4.06476 60.26906,7.72156 40.11859,7.34827 79.8082,16.28473 118.08408,30.6264 8.41302,3.15228 16.36557,7.46369 24.37567,12.34882 m 353.24811,76.96423 c -10e-4,-7.1615 -0.16736,-14.32837 0.0677,-21.48205 0.11225,-3.41449 -1.43487,-4.8025 -4.42938,-5.42328 -16.42785,-3.40534 -32.99926,-6.1626 -49.72674,-7.03675 -23.11017,-1.2077 -46.12714,0.62726 -69.08893,3.67084 -33.8299,4.48419 -65.14099,15.79675 -94.20551,33.47632 -5.97277,3.63312 -12.17993,7.05176 -18.51349,12.94843 3.78913,0 6.08448,-1.3e-4 8.37983,-7e-5 67.78405,0.002 135.56811,0.005 203.35217,0.005 6.49524,6e-5 12.99384,-0.13806 19.48444,0.0322 3.48388,0.0914 4.83233,-1.31256 4.70178,-4.70325 -0.1344,-3.49219 -0.025,-6.99377 -0.0219,-11.48761 m -446.15329,15.17694 c 32.28222,-0.0904 64.56286,1.77057 96.97351,0.20831 -8.90433,-7.00933 -18.22196,-12.98699 -28.10483,-18.21868 -39.47025,-20.89392 -81.85706,-29.87055 -126.11237,-31.23114 -10.29892,-0.31665 -20.60226,-0.0642 -30.92297,0.77276 -14.92902,1.21051 -29.63312,3.67706 -44.33586,6.31293 -3.57109,0.64026 -4.8084,2.59778 -4.72792,6.26349 0.22299,10.1571 0.34056,20.33197 -0.0327,30.48022 -0.18495,5.02869 1.2612,6.54578 6.39967,6.50116 43.2876,-0.37628 86.58515,0.53186 130.86344,-1.08905 m 66.9736,-48.78937 c 26.91296,14.04377 53.10489,29.08344 72.55188,53.21839 1.948,-1.49365 1.53332,-2.91986 1.18078,-4.4198 -1.41348,-6.01331 -3.16803,-11.89154 -6.22207,-17.31745 -13.00812,-23.11053 -32.41468,-39.47021 -55.34223,-51.93664 -23.6904,-12.8811 -49.20453,-21.04144 -75.11938,-28.02026 -23.43634,-6.31141 -47.40411,-9.99146 -71.30036,-13.96363 -8.83413,-1.4685 -17.79077,-2.19781 -26.68978,-3.27881 -3.40229,-0.41327 -5.31925,0.47455 -5.25193,4.49164 0.17874,10.66077 0.12317,21.32727 0.016,31.98999 -0.0304,3.03003 1.14304,4.09101 4.12864,4.10736 5.33752,0.0292 10.61404,-0.80816 15.90765,-0.9682 27.31067,-0.82519 54.48776,0.2724 81.37268,5.85511 22.02808,4.57409 43.83505,9.72051 64.76813,20.2423 m 288.42981,-25.8526 c 1.8241,-0.11779 3.64673,-0.30401 5.47253,-0.34259 13.48035,-0.28509 26.94031,-0.035 40.40302,0.9137 7.00732,0.49384 7.0404,0.13812 7.04883,-7.10858 0.0109,-9.32788 0.032,-18.65589 -0.0115,-27.98352 -0.008,-1.77692 0.45606,-3.68707 -1.06592,-5.47003 -0.82184,0 -1.80249,-0.0903 -2.7622,0.0136 -13.20502,1.42993 -26.3761,3.07202 -39.48896,5.24713 -34.47394,5.7182 -68.52075,13.04016 -101.35919,25.32605 -22.09137,8.26507 -43.59521,17.57989 -61.34918,33.63739 -14.60834,13.2124 -27.16541,27.96637 -32.7309,47.43726 -0.80645,2.82141 -2.31769,5.72051 -1.14294,9.61358 4.23273,-5.24304 7.47906,-10.32422 11.88482,-14.40234 28.13672,-26.04486 60.77387,-44.08466 97.69385,-54.2085 25.02796,-6.86291 50.42304,-11.84497 77.40778,-12.67316 z"
     id="path2" /><path
     fill="#000000"
     opacity="1"
     stroke="none"
     d="m 633.00012,122.64851 c 76.33118,-4.2e-4 152.16242,-0.003 227.99359,0.002 17.43402,0.001 25.34882,7.91015 25.35004,25.36771 0.008,118.66332 9.8e-4,237.32662 0.0141,355.98992 10e-4,9.65985 -0.89075,8.53485 8.51709,8.66662 12.06885,0.16901 19.50995,9.5503 16.35309,20.61737 -1.9986,7.00647 -7.75446,11.08045 -15.92139,11.07343 -44.83185,-0.0384 -89.66376,-0.11316 -134.49561,-0.17328 -12.33294,-0.0165 -24.66949,0.15601 -36.9978,-0.09 -12.03406,-0.24012 -18.95843,-10.18433 -15.12164,-21.26081 1.68555,-4.86627 5.05908,-7.59936 10.2074,-8.29999 12.29235,-1.67267 24.63342,-0.61523 36.94848,-0.70349 27.66266,-0.19824 55.32721,-0.11779 82.99054,-0.24756 4.65296,-0.0218 9.30066,-0.60931 13.95648,-0.78015 2.73688,-0.10046 3.94056,-1.34961 3.84876,-4.03576 -0.0512,-1.49793 0.008,-2.99949 0.008,-4.49939 10e-4,-91.6641 0.21655,-183.32904 -0.14636,-274.99169 -0.0936,-23.63891 -0.75824,-47.28331 -0.41736,-70.92781 0.0594,-4.12108 -1.67597,-5.04283 -5.39173,-5.0218 -20.6654,0.117 -41.33185,0.0473 -61.99792,0.0496 -108.33026,0.0123 -216.66058,-0.0102 -324.99085,0.0616 -36.81094,0.0244 -73.62173,0.29642 -110.43264,0.44129 -43.99375,0.17312 -87.99006,0.11261 -131.97989,0.61899 -14.64366,0.16856 -29.29096,0.57228 -43.94112,0.63455 -6.81247,0.0289 -7.00006,0.2438 -7.00049,6.99994 -0.005,76.33117 -0.003,152.66237 -0.003,228.99354 9e-5,38.49894 -0.002,76.99784 0.003,115.49677 8.5e-4,6.55957 0.0141,6.76971 6.58665,6.80273 40.32847,0.20282 80.65743,0.29914 120.9862,0.44397 3.15893,0.0113 6.30172,-0.0181 9.45562,0.57636 7.73383,1.4577 11.67517,5.83575 11.93683,13.61682 0.23139,6.87891 -4.76062,13.80548 -11.21167,15.31305 -2.08789,0.48791 -4.27868,0.74682 -6.42306,0.75097 -57.33142,0.11023 -114.66292,0.18805 -171.99445,0.2295 -9.06826,0.007 -14.29268,-4.96497 -15.77011,-14.71259 -0.91768,-6.05456 4.12981,-13.586 10.55156,-15.93957 3.55933,-1.30451 7.25809,-1.3061 10.86612,-0.95893 5.18201,0.49866 6.42462,-1.57712 6.41485,-6.54577 -0.14642,-74.49762 -0.10316,-148.99561 -0.10385,-223.4935 -2.3e-4,-26.16593 0.37374,-52.33898 -0.12626,-78.49533 -0.34371,-17.98107 -0.80803,-35.95742 -0.67205,-53.94137 0.0275,-3.63758 0.37648,-7.32249 1.05266,-10.89561 1.68329,-8.89519 8.81297,-14.87405 18.30426,-15.68356 0.82875,-0.0707 1.66532,-0.0697 2.49822,-0.0693 49.65049,0.0265 99.29979,-1.4249 148.94774,-0.53074 49.30847,0.88804 98.62811,1.05924 147.9198,0.30454 57.6473,-0.88263 115.28677,-0.40485 173.42843,-0.75338 z"
     id="path3" /><path
     fill="#000000"
     opacity="1"
     stroke="none"
     d="m 460.08206,738.9646 c -10.15723,-5.80768 -20.26269,-10.89789 -30.84665,-14.9762 -2.50683,-0.966 -3.63583,-2.37555 -3.62588,-5.17053 0.083,-23.32397 -0.0647,-46.64923 0.11419,-69.97217 0.0623,-8.12298 5.65024,-13.19391 13.85505,-13.198 48.98095,-0.0242 97.96194,-0.0245 146.9429,0.011 8.51709,0.006 13.79138,5.21564 13.80932,13.60205 0.048,22.49115 -0.0419,44.98285 0.0825,67.47345 0.019,3.43756 -0.9389,5.27021 -4.30523,6.70441 -25.32752,10.7904 -48.60004,24.86645 -68.46985,44.13446 -4.86884,4.72143 -9.4079,9.78296 -14.65058,15.26538 -15.23114,-17.76965 -32.61239,-32.33112 -52.90579,-43.87384 z"
     id="path4" /><path
     fill="#000000"
     opacity="1"
     stroke="none"
     d="m 297.87158,242.90063 c 10.98996,-13.19981 21.77942,-26.10582 32.517,-39.05481 4.09631,-4.93992 9.01514,-7.96669 15.62259,-6.4297 11.13278,2.58963 15.06467,14.00641 7.79483,22.78942 -13.487,16.29414 -27.1474,32.44467 -40.69809,48.68627 -12.80148,15.3436 -25.5925,30.69629 -38.31305,46.10691 -6.11774,7.41147 -15.66702,8.54754 -22.24944,1.70911 -11.54779,-11.99695 -22.74411,-24.33924 -33.86395,-36.73752 -4.20769,-4.69144 -4.21319,-13.15158 -0.69427,-18.18003 3.56848,-5.09927 10.20526,-7.07455 16.46641,-4.94009 2.295,0.78238 3.9928,2.32071 5.58391,4.06525 6.73612,7.38568 13.49025,14.75497 20.26213,22.10784 0.53995,0.58628 1.26544,1.00162 2.61756,2.0481 11.65869,-14.06232 23.19592,-27.97818 34.95437,-42.17075 z"
     id="path5" /><path
     fill="#000000"
     opacity="1"
     stroke="none"
     d="m 418.58075,366.40686 c 30.1842,-15.01855 64.17389,-1.64477 75.77454,27.18518 12.41143,30.84479 -5.4834,65.56937 -37.99616,72.66956 -37.194,8.1224 -64.12619,-19.099 -66.8992,-47.99985 -2.30481,-24.0213 13.77225,-45.06226 29.12082,-51.85489 m -1.19269,35.56427 c -10.48627,20.42758 7.34735,44.33514 28.81314,41.98242 16.90531,-1.85284 30.10593,-18.6553 25.89871,-35.07977 -3.10705,-12.12961 -10.92001,-20.11221 -23.04864,-22.25562 -13.36026,-2.36111 -24.12125,2.88431 -31.66321,15.35297 z"
     id="path6" /><path
     fill="#000000"
     opacity="1"
     stroke="none"
     d="m 618.85608,453.89728 c -29.35309,24.07968 -69.84375,15.84292 -85.77832,-17.33982 -15.75232,-32.80349 5.44055,-72.2308 43.41296,-75.93283 31.30384,-3.05188 54.6861,18.792 59.36127,42.84851 3.86658,19.89609 -2.84503,36.22858 -16.99591,50.42414 m -15.85822,-18.40161 c 6.17096,-6.53479 8.6438,-14.27207 8.14753,-23.23712 -0.79169,-14.3025 -16.15284,-28.98398 -34.45789,-25.91532 -14.28711,2.39511 -25.89465,17.97852 -23.66168,32.168 3.59485,22.84406 31.22949,34.88504 49.97204,16.98444 z"
     id="path7" /><path
     fill="#000000"
     opacity="1"
     stroke="none"
     d="m 452.75561,494.83145 c 0.94388,-8.87436 4.85499,-13.01452 13.1391,-13.06128 31.13239,-0.17575 62.26661,-0.18094 93.3993,-0.0514 8.61328,0.0359 13.92914,5.32355 13.97845,13.01431 0.0491,7.65509 -5.79645,13.5131 -14.25934,13.54923 -30.6333,0.13089 -61.26782,0.13562 -91.90112,0.005 -8.20789,-0.035 -11.90289,-3.70978 -14.35639,-13.45587 z"
     id="path8" /><path
     fill="#000000"
     opacity="1"
     stroke="none"
     d="m 448.67059,403.84164 c 6.73392,4.0531 9.10907,9.32172 7.31809,15.52814 -1.51233,5.24066 -6.74927,9.04755 -12.37912,8.99875 -6.064,-0.0526 -11.11615,-3.72934 -12.54038,-9.39099 -1.2149,-4.82953 -0.2886,-9.3017 3.40281,-12.80075 3.99407,-3.78598 8.72595,-4.37656 14.1986,-2.33515 z"
     id="path9" /><path
     fill="#000000"
     opacity="1"
     stroke="none"
     d="m 574.83667,404.5318 c 6.20361,-3.11502 11.68726,-2.51141 16.5166,1.8869 3.90711,3.55829 5.00397,9.18662 3.04407,13.73947 -2.37091,5.50769 -6.95203,8.40726 -13.0166,8.23899 -5.4682,-0.15174 -9.75757,-3.3368 -11.61682,-8.62586 -1.90387,-5.41629 -0.24152,-10.71838 5.07275,-15.2395 z"
     id="path10" /></g>
</svg>
