<?xml version="1.0" encoding="UTF-8" standalone="no"?>
<svg
   version="1.1"
   width="557.07526"
   height="786.35968"
   id="svg42"
   xmlns="http://www.w3.org/2000/svg"
   xmlns:svg="http://www.w3.org/2000/svg">
  <defs
     id="defs42" />
  <path
     d="m 304.69969,8.8566564 c 9.84149,8.3846906 15.69023,17.9279196 17.10547,31.1015616 0.28602,13.456447 -3.14575,24.097864 -12.30078,34.183594 -6.45792,6.026516 -13.43607,9.478929 -22.11719,10.925781 0,12.21 0,24.420007 0,37.000007 8.42274,-0.0696 8.42274,-0.0696 17.01563,-0.14063 3.60028,-0.0205 7.20048,-0.0397 10.80078,-0.0547 5.68944,-0.0237 11.37863,-0.0515 17.06787,-0.10645 4.59717,-0.0441 9.19406,-0.0675 13.79143,-0.0778 1.73632,-0.007 3.47263,-0.0215 5.20882,-0.0434 24.48286,-0.29642 46.62484,5.78767 68.11547,17.42292 0.91523,0.49371 1.83047,0.98742 2.77344,1.49609 24.48033,13.9831 43.30778,35.64447 57.16406,59.87891 0.3777,0.65379 0.75539,1.30759 1.14453,1.9812 2.31072,4.13916 3.78171,8.03927 4.91797,12.6438 0.86166,-0.0157 1.72332,-0.0314 2.61108,-0.0476 3.23729,-0.0515 6.47436,-0.0889 9.71192,-0.11719 1.39362,-0.015 2.7872,-0.0353 4.18066,-0.0615 10.9302,-0.20002 19.9279,0.39384 28.70337,7.41772 6.68259,6.74083 7.93981,14.42558 7.9541,23.56128 0.005,0.76496 0.01,1.52991 0.015,2.31804 0.0146,2.52201 0.0214,5.04395 0.0269,7.566 0.006,1.76251 0.0115,3.52503 0.0173,5.28755 0.0105,3.69443 0.0163,7.38885 0.0198,11.0833 0.005,4.71281 0.0295,9.42534 0.058,14.13806 0.0187,3.64192 0.0238,7.28377 0.0254,10.92573 0.003,1.73618 0.011,3.47236 0.0242,5.20849 0.16113,22.8154 0.16113,22.8154 -6.97276,30.59515 -0.61102,0.69867 -1.22203,1.39734 -1.85156,2.11718 -8.63667,6.8719 -17.56087,6.50413 -28.08594,6.25782 -1.50063,-0.0201 -3.00128,-0.0383 -4.50195,-0.0547 -3.64573,-0.0437 -7.29047,-0.11252 -10.93555,-0.19531 -0.28738,0.9054 -0.57476,1.81081 -0.87085,2.74365 -6.04914,17.44507 -18.59396,32.10191 -31.12915,45.25635 -0.98227,1.06154 -0.98227,1.06154 -1.98438,2.14453 -23.61743,24.77812 -59.96998,41.58576 -94.01562,43.85547 0,3.63 0,7.26 0,11 1.56442,-0.0133 3.12884,-0.0267 4.74066,-0.0404 14.77121,-0.12183 29.54224,-0.21203 44.31383,-0.2705 7.59353,-0.0308 15.18669,-0.0729 22.77998,-0.14176 6.6231,-0.0601 13.24592,-0.0986 19.86928,-0.11189 3.50288,-0.008 7.00498,-0.0259 10.50761,-0.0699 3.92285,-0.0488 7.84496,-0.0495 11.76813,-0.0468 1.1444,-0.0216 2.2888,-0.0431 3.46788,-0.0654 10.30417,0.0783 18.47007,3.63975 26.05263,10.62152 7.00908,7.6211 8.67099,15.0366 8.5,25.125 0.71543,-0.058 1.43086,-0.11602 2.16797,-0.17578 11.34719,-0.51378 21.15777,2.84811 29.83984,10.24218 9.24591,8.97397 14.31001,19.06626 14.62711,31.99584 0.048,3.57684 0.0327,7.15152 0.0121,10.72853 0.007,1.98066 0.0157,3.96131 0.0265,5.94195 0.0227,5.34933 0.014,10.69817 -0.002,16.0475 -0.0127,5.61665 -9e-4,11.23327 0.007,16.84992 0.009,9.43073 -0.003,18.86127 -0.0267,28.29198 -0.0272,10.87806 -0.0184,21.75566 0.009,32.63371 0.0227,9.36516 0.0259,18.73019 0.0128,28.09537 -0.008,5.58218 -0.009,11.16415 0.008,16.74632 0.0145,5.25092 0.004,10.50125 -0.0245,15.75211 -0.007,1.91832 -0.005,3.83669 0.006,5.75499 0.0833,15.8668 -2.2075,28.38498 -13.69457,40.18131 -9.21932,8.73239 -18.08594,12.10452 -30.71118,12.01172 -0.76044,-10e-4 -1.52087,-0.003 -2.30435,-0.004 -2.53783,-0.006 -5.07557,-0.0184 -7.61338,-0.0309 -1.82363,-0.005 -3.64727,-0.01 -5.47091,-0.0138 -3.92213,-0.009 -7.84424,-0.0204 -11.76636,-0.0329 -6.20225,-0.018 -12.40445,-0.0199 -18.60672,-0.0175 -1.04734,3.7e-4 -2.09467,7.4e-4 -3.17375,10e-4 -3.22455,0.001 -6.44911,0.003 -9.67366,0.004 -13.35271,0.007 -26.70502,0.002 -40.05762,-0.0552 -9.74356,-0.0414 -19.48656,-0.0512 -29.23018,-0.0239 -5.15482,0.0133 -10.30851,0.0103 -15.46321,-0.031 -4.84657,-0.0386 -9.6913,-0.0353 -14.53787,1.2e-4 -1.77777,0.006 -3.55567,-0.004 -5.33325,-0.0307 -9.27704,-0.49119 -9.27704,-0.49119 -17.36983,3.11579 -1.54771,2.29479 -2.61598,4.46506 -3.65648,7.02098 -9.25484,12.28809 -22.81754,20.37404 -37.86328,23.61718 -18.55677,2.26472 -36.11579,-0.98126 -51.13672,-12.61718 -6.29758,-5.05362 -11.25611,-10.22587 -15.625,-17.03125 -1.23041,-2.0953 -1.23041,-2.0953 -3.375,-2.96875 -2.40608,-0.0988 -4.7834,-0.13727 -7.1898,-0.1313 -0.74941,-0.002 -1.49881,-0.004 -2.27093,-0.006 -2.52474,-0.006 -5.04943,-0.005 -7.57418,-0.004 -1.80509,-0.003 -3.61017,-0.007 -5.41525,-0.0105 -3.89545,-0.008 -7.79088,-0.013 -11.68633,-0.0163 -6.16551,-0.006 -12.33097,-0.0224 -18.49646,-0.0413 -2.11059,-0.006 -4.22118,-0.0127 -6.33177,-0.019 -1.05724,-0.003 -2.11448,-0.006 -3.20376,-0.01 -14.357,-0.0421 -28.71397,-0.075 -43.07102,-0.0874 -9.67866,-0.008 -19.357178,-0.0309 -29.035768,-0.0694 -5.12059,-0.0197 -10.24096,-0.0322 -15.36158,-0.0272 -4.82393,0.005 -9.64744,-0.009 -14.47129,-0.037 -1.76434,-0.007 -3.52872,-0.007 -5.29307,2e-4 -14.66387,0.0543 -26.73643,-2.19122 -37.75895,-12.5759 -8.9992502,-9.53753 -13.16702023,-20.35432 -13.10054023,-33.37643 -0.004,-0.80833 -0.008,-1.61665 -0.0116,-2.44947 -0.0103,-2.68814 -0.006,-5.37607 -0.002,-8.06424 -0.004,-1.93567 -0.01,-3.87134 -0.0155,-5.807 -0.0134,-5.24385 -0.014,-10.48763 -0.0114,-15.7315 0.001,-4.38358 -0.004,-8.76715 -0.009,-13.15073 -0.0111,-10.34481 -0.0115,-20.68959 -0.005,-31.0344 0.006,-10.65867 -0.006,-21.31721 -0.0276,-31.97585 -0.0176,-9.16374 -0.0236,-18.32743 -0.0204,-27.49118 0.002,-5.46752 -7.9e-4,-10.93496 -0.0147,-16.40247 -0.0126,-5.14319 -0.0106,-10.28617 0.002,-15.42936 0.002,-1.8825 -3.5e-4,-3.76501 -0.009,-5.64749 -0.0498,-12.20793 0.5381,-22.31587 6.94703003,-33.02972 0.59941,-1.02352 1.19883,-2.04703 1.81641,-3.10157 0.80244,-1.12535 0.80244,-1.12535 1.6210902,-2.27343 0.66,0 1.32,0 2,0 0.22043,-0.58524 0.44086,-1.17047 0.66797,-1.77344 1.74935,-2.92413 3.75223,-4.0747 6.64453,-5.85156 0.94488,-0.59039 1.88977,-1.18078 2.86328,-1.78907 8.03221,-4.51047 15.80414,-4.74927 24.82422,-4.58593 -0.0464,-0.60586 -0.0928,-1.21172 -0.14062,-1.83594 -0.39339,-9.13206 1.96969,-15.89004 7.76562,-22.97656 4.95609,-5.25365 12.30348,-9.92047 19.71193,-10.31055 1.38961,0.001 1.38961,0.001 2.80728,0.003 1.06431,-0.001 2.12862,-0.003 3.22517,-0.004 1.16741,0.004 2.33482,0.007 3.5376,0.0109 1.84408,-2.2e-4 1.84408,-2.2e-4 3.72542,-4.4e-4 3.37164,5.8e-4 6.74322,0.006 10.11485,0.0126 3.523398,0.006 7.046798,0.007 10.570208,0.008 6.67228,0.003 13.34454,0.0113 20.0168,0.0213 7.59606,0.0112 15.19211,0.0167 22.78817,0.0217 15.62587,0.0105 31.25172,0.0282 46.87757,0.0503 0,-3.96 0,-7.92 0,-12 -1.93875,-0.0619 -3.8775,-0.12375 -5.875,-0.1875 -9.09853,-0.66038 -17.46837,-3.02529 -26.125,-5.8125 -1.00136,-0.3188 -1.00136,-0.3188 -2.02295,-0.64405 -16.91274,-5.51567 -33.33518,-13.90889 -46.97705,-25.35595 -1.13649,-0.92346 -2.27322,-1.84662 -3.41016,-2.76953 -19.670578,-16.18871 -35.256238,-36.37225 -44.589838,-60.23047 -1.42095,-0.006 -1.42095,-0.006 -2.87061,-0.0125 -3.56046,-0.0272 -7.11926,-0.0765 -10.67919,-0.14014 -1.53213,-0.023 -3.0644,-0.0375 -4.59668,-0.043 -10.3665,-0.044 -19.54866,-0.49958 -27.29102,-8.24194 -4.44293,-7.28641 -5.70806,-12.94362 -5.7395,-21.40698 -0.007,-0.77471 -0.0131,-1.54942 -0.0199,-2.3476 -0.0197,-2.55446 -0.0314,-5.10887 -0.0414,-7.66339 -0.004,-0.87657 -0.008,-1.75314 -0.0124,-2.65628 -0.0208,-4.64102 -0.0351,-9.28201 -0.0445,-13.92307 -0.0111,-4.77343 -0.0454,-9.5464 -0.0852,-14.31966 -0.0263,-3.68824 -0.0345,-7.37637 -0.0381,-11.0647 -0.005,-1.75853 -0.0164,-3.51705 -0.035,-5.27548 -0.11739,-11.81277 0.15257,-22.23404 8.68396,-31.37019 7.18221,-6.23092 14.36284,-7.67412 23.69922,-7.63281 1.28906,0.003 2.57812,0.006 3.90625,0.01 1.34635,0.008 2.69271,0.0168 4.03906,0.0254 1.36979,0.005 2.73958,0.01 4.10938,0.0137 3.33858,0.0117 6.67708,0.0282 10.01562,0.0488 0.29189,-0.91443 0.58378,-1.82886 0.88452,-2.771 1.34664,-3.89815 3.14981,-7.27788 5.17798,-10.854 0.39703,-0.70077 0.79406,-1.40154 1.20313,-2.12354 6.0168,-10.40841 13.47234,-19.53636 21.734368,-28.25146 1.32258,-1.41926 1.32258,-1.41926 2.67188,-2.86719 23.23972,-24.43888 56.98845,-43.20284 91.25134,-44.25307 1.38171,-0.003 2.76344,-3.6e-4 4.14514,0.007 0.76195,-1.4e-4 1.52389,-2.9e-4 2.30893,-4.4e-4 2.48885,6.9e-4 4.97762,0.008 7.46646,0.0163 1.73735,0.002 3.47469,0.003 5.21204,0.004 4.55047,0.004 9.10091,0.0136 13.65136,0.0247 5.47171,0.0121 10.94342,0.0166 16.41514,0.0225 8.29259,0.01 16.58511,0.0288 24.87771,0.0462 0,-12.21 0,-24.420007 0,-37.000007 -2.31,-0.329999 -4.62,-0.659999 -7,-1 -11.34023,-5.029122 -18.19523,-13.532584 -23.68689,-24.3125 -4.50837,-12.666378 -3.7504,-23.470599 1.6875,-35.687499 5.4393,-10.898023 13.79904,-17.5018596 25,-22.0000001 13.2554,-4.3282925 28.2557,-1.76501416 39.3125,6.7890625 z"
     fill="#083163"
     id="path2" />
  <path
     d="m 196.61781,139.92043 c 0.70564,-0.004 1.41128,-0.007 2.1383,-0.0112 2.35311,-0.011 4.70617,-0.0149 7.0593,-0.0187 1.69255,-0.006 3.38511,-0.0129 5.07765,-0.0199 5.55272,-0.021 11.10544,-0.0314 16.65819,-0.0414 1.91943,-0.004 3.83886,-0.008 5.75828,-0.0123 9.02888,-0.019 18.05775,-0.0333 27.08664,-0.0416 10.37719,-0.01 20.75416,-0.036 31.13128,-0.0765 8.04707,-0.0303 16.09409,-0.045 24.14122,-0.0483 4.79277,-0.002 9.58531,-0.0111 14.37802,-0.0365 38.58876,-0.19375 71.03435,4.7285 101.3405,30.45349 0.79148,0.65097 1.58297,1.30195 2.39844,1.97265 7.57244,6.3684 13.32506,13.70101 18.60156,22.02735 0.55558,0.86754 1.11117,1.73508 1.68359,2.6289 1.1775,1.84361 2.35062,3.69001 3.51953,5.53907 1.20863,1.9049 2.42759,3.80327 3.65625,5.69531 3.39141,5.23929 6.63939,10.41019 9.14063,16.13672 0.31453,0.71414 0.62906,1.42828 0.95312,2.16406 3.61907,9.04766 5.47623,18.64828 7.47852,28.1543 0.49846,2.35187 1.02308,4.69605 1.55273,7.04102 6.85744,32.11616 -1.11331,65.63249 -18.61328,93.08593 -10.46062,15.88289 -22.70849,29.11585 -39.37109,38.55469 -0.88156,0.50564 -1.76312,1.01127 -2.67139,1.53223 -24.16795,13.77213 -45.96284,22.62438 -74.0437,22.61303 -1.48421,0.003 -2.96842,0.006 -4.45264,0.0102 -4.01487,0.009 -8.02972,0.0112 -12.0446,0.0118 -2.51549,7.1e-4 -5.03097,0.003 -7.54646,0.005 -8.79647,0.009 -17.59293,0.0133 -26.3894,0.0125 -8.16487,-6e-4 -16.32966,0.01 -24.49451,0.0258 -7.03643,0.0131 -14.07285,0.0184 -21.10929,0.0178 -4.19056,-2.6e-4 -8.38106,0.002 -12.5716,0.0132 -3.94895,0.01 -7.89777,0.01 -11.84672,0.002 -1.43695,-10e-4 -2.8739,10e-4 -4.31084,0.007 -13.29048,0.0528 -26.09056,-1.35866 -39.01885,-4.50187 -0.89163,-0.21616 -1.78326,-0.43232 -2.7019,-0.65503 -7.94635,-2.00355 -15.33301,-4.68259 -22.7981,-8.09497 -0.6318,-0.28182 -1.2636,-0.56364 -1.91455,-0.854 -20.14957,-9.07056 -37.09572,-22.21327 -50.08545,-40.146 -0.76828,-0.99 -1.53656,-1.98 -2.32812,-3 -21.240848,-27.80597 -29.418608,-65.82314 -25.273438,-100.31543 4.13564,-26.63512 13.80192,-52.1253 31.601558,-72.68457 0.42749,-0.5029 0.85497,-1.00579 1.29541,-1.52393 21.01149,-24.59124 53.72641,-45.50921 86.93521,-45.62193 z"
     fill="#89cbeb"
     id="path3" />
  <path
     d="m 360.39915,462.79294 c 1.27594,-0.005 2.55187,-0.0102 3.86647,-0.0155 3.47513,-0.0133 6.95015,-0.014 10.4253,-0.0114 2.91003,0.001 5.82003,-0.004 8.73005,-0.009 6.86742,-0.0111 13.73478,-0.0115 20.6022,-0.005 7.0682,0.006 14.13619,-0.006 21.20435,-0.0276 6.0869,-0.0176 12.17373,-0.0236 18.26064,-0.0204 3.62753,0.002 7.25491,-7.7e-4 10.88241,-0.0147 4.04482,-0.015 8.08922,-0.006 12.13405,0.006 1.19139,-0.008 2.38279,-0.0153 3.61029,-0.0232 6.72908,0.0426 13.4578,0.0859 18.82327,4.74119 4.92254,5.42946 4.59649,11.07674 4.58272,18.04247 0.003,1.26293 0.003,1.26293 0.007,2.55138 0.006,2.81964 0.006,5.63923 0.005,8.45887 0.003,2.02216 0.006,4.04431 0.0102,6.06647 0.009,5.4916 0.0112,10.98319 0.0118,16.4748 9.5e-4,4.58273 0.005,9.16545 0.008,13.74817 0.008,10.80912 0.0106,21.61824 0.01,32.42736 -6e-4,11.15685 0.01,22.31364 0.0257,33.47047 0.0131,9.57548 0.0184,19.15094 0.0178,28.72642 -2.5e-4,5.72058 0.003,11.44112 0.0132,17.16169 0.01,5.37784 0.01,10.75558 0.002,16.13342 -10e-4,1.9749 0.001,3.94981 0.007,5.9247 0.008,2.69339 0.003,5.3865 -0.005,8.07988 0.005,0.78357 0.0103,1.56713 0.0156,2.37443 -0.0346,5.45143 -0.69344,8.96242 -4.00816,13.29508 -2.9375,2.23919 -4.65606,2.21818 -8.32932,2.21747 -1.24595,0.01 -2.49189,0.0192 -3.77559,0.029 -1.37845,-0.009 -2.7569,-0.0194 -4.13535,-0.0295 -1.45407,0.004 -2.90814,0.009 -4.3622,0.0167 -3.13212,0.012 -6.2639,0.0115 -9.39603,10e-4 -4.96549,-0.0156 -9.93064,-0.002 -14.89611,0.016 -9.66151,0.0308 -19.32292,0.0323 -28.98447,0.0303 -12.25738,-10e-4 -24.51468,0.009 -36.772,0.0486 -4.92168,0.0148 -9.84304,0.0147 -14.76472,0.003 -3.08512,-0.005 -6.17012,0.003 -9.25521,0.0135 -1.41437,0.002 -2.82876,-2.3e-4 -4.2431,-0.009 -22.46528,-0.12504 -45.40374,6.29225 -61.98509,22.13116 -1.35547,1.25 -1.35547,1.25 -2.35547,1.25 -0.0702,-25.08719 -0.12303,-50.17437 -0.15544,-75.26163 -0.0154,-11.64915 -0.0365,-23.29824 -0.0709,-34.94736 -0.03,-10.15652 -0.0493,-20.31299 -0.0559,-30.46956 -0.004,-5.37495 -0.013,-10.74977 -0.0349,-16.12469 -0.0205,-5.06591 -0.0266,-10.13164 -0.0221,-15.19759 -8.2e-4,-1.85264 -0.007,-3.70528 -0.0183,-5.55788 -0.0775,-13.06307 0.88,-24.73875 6.98262,-36.5663 0.3441,-0.67667 0.6882,-1.35335 1.04272,-2.05053 3.25289,-6.13069 7.39115,-10.96478 12.33228,-15.82447 0.53883,-0.62003 1.07765,-1.24007 1.63281,-1.8789 12.91081,-14.49897 33.8199,-19.43396 52.37996,-19.3953 z"
     fill="#fdfdfd"
     id="path4" />
  <path
     d="m 89.672102,462.79294 c 1.852488,-0.008 1.852488,-0.008 3.742401,-0.0155 3.378724,-0.0115 6.757207,-0.014 10.135927,-0.0114 2.83217,0.001 5.66432,-0.004 8.49649,-0.009 6.69457,-0.0111 13.3891,-0.0115 20.08368,-0.005 6.87088,0.006 13.74156,-0.006 20.61241,-0.0276 5.92389,-0.0177 11.84771,-0.0236 17.77162,-0.0204 3.52663,0.002 7.05312,-6.8e-4 10.57973,-0.0147 26.06779,-0.0948 49.13395,1.74316 69.32408,20.31973 16.44993,17.20062 20.45409,36.26409 20.30932,59.15942 -8.4e-4,1.89352 -3.6e-4,3.78704 0.001,5.68056 8.6e-4,5.10246 -0.0167,10.20471 -0.0377,15.30713 -0.0189,5.34643 -0.0205,10.69288 -0.0241,16.03934 -0.009,10.10733 -0.0339,20.21457 -0.064,30.32185 -0.0336,11.51398 -0.05,23.02796 -0.0651,34.54197 -0.0313,23.6695 -0.084,47.33891 -0.15097,71.00833 -0.66,0 -1.32,0 -2,0 0,-0.66 0,-1.32 0,-2 -0.52981,-0.24235 -1.05961,-0.48469 -1.60547,-0.73438 -2.44214,-1.29078 -4.68152,-2.78342 -6.96216,-4.33764 -18.12504,-12.23637 -36.34233,-15.07937 -57.89062,-15.06983 -1.43177,-0.003 -2.86354,-0.007 -4.29531,-0.0105 -3.06317,-0.008 -6.12634,-0.013 -9.18952,-0.0163 -4.84552,-0.006 -9.69097,-0.0225 -14.53646,-0.0413 -1.66346,-0.006 -3.32692,-0.0127 -4.99038,-0.019 -0.83242,-0.003 -1.66483,-0.006 -2.52247,-0.01 -11.26725,-0.042 -22.53447,-0.0751 -33.8018,-0.0873 -7.62118,-0.008 -15.24217,-0.0308 -22.86326,-0.0694 -4.02706,-0.0197 -8.05384,-0.0322 -12.080948,-0.0272 -3.781669,0.005 -7.562822,-0.009 -11.344387,-0.037 -1.386303,-0.007 -2.772659,-0.007 -4.15896,2e-4 -1.893853,0.009 -3.787774,-0.009 -5.681549,-0.0285 -1.059057,-0.002 -2.118114,-0.005 -3.209264,-0.007 -3.585669,-0.63151 -5.265395,-2.00992 -7.867442,-4.50501 -1.607198,-3.2144 -1.144196,-6.71731 -1.140442,-10.24848 -0.003,-0.86318 -0.0059,-1.72637 -0.009,-2.61572 -0.0087,-2.90953 -0.0102,-5.81903 -0.01169,-8.72858 -0.0046,-2.0792 -0.0097,-4.1584 -0.01504,-6.23761 -0.01314,-5.66126 -0.01957,-11.3225 -0.02401,-16.98378 -0.0029,-3.53485 -0.007,-7.06969 -0.0115,-10.60454 -0.01368,-11.05355 -0.02334,-22.10709 -0.0272,-33.16064 -0.0045,-12.77089 -0.02203,-25.54166 -0.051,-38.31251 -0.0216,-9.86333 -0.0317,-19.72662 -0.03304,-29.58997 -0.001,-5.8945 -0.007,-11.78891 -0.02482,-17.68339 -0.01645,-5.54526 -0.01865,-11.09034 -0.0099,-16.63562 7.72e-4,-2.03576 -0.0036,-4.07153 -0.01346,-6.10726 -0.01268,-2.77871 -0.0069,-5.55679 0.0036,-8.3355 -0.0081,-0.80604 -0.01611,-1.61208 -0.02441,-2.44254 0.04257,-4.83972 0.772422,-8.0937 3.391906,-12.31387 6.163433,-5.95044 14.29856,-5.29153 22.285218,-5.27449 z"
     fill="#fdfdfe"
     id="path5" />
  <path
     d="m 41.098132,500.00119 c 1.764162,0.0144 1.764162,0.0144 3.563965,0.029 1.348923,0.0185 1.348923,0.0185 2.725097,0.0374 0.0024,0.97184 0.0048,1.94367 0.0072,2.94496 0.05881,23.65317 0.134702,47.30625 0.228478,70.95932 0.04496,11.43847 0.08437,22.87692 0.11072,34.31545 0.02298,9.9705 0.05638,19.94089 0.102266,29.91131 0.02393,5.27865 0.04266,10.5572 0.04891,15.8359 0.0061,4.97076 0.02606,9.94127 0.05666,14.91193 0.0088,1.82204 0.0125,3.64411 0.01073,5.46616 -0.0017,2.49356 0.01509,4.98636 0.03626,7.47981 -0.0049,0.71597 -0.0097,1.43195 -0.01469,2.16962 0.086,6.16382 1.517193,11.50634 5.280605,16.46648 0.662578,0.63164 1.325156,1.26328 2.007813,1.91407 0.657421,0.64711 1.314843,1.29421 1.992187,1.96093 4.212637,3.28679 8.033738,3.91473 13.296494,3.92908 1.24035,0.008 2.4807,0.0165 3.758636,0.0251 1.366959,-8.2e-4 2.733917,-0.002 4.100876,-0.003 1.445988,0.006 2.891972,0.0129 4.337952,0.0207 3.111271,0.0149 6.222479,0.0236 9.333784,0.0277 4.931634,0.007 9.863135,0.0285 14.794715,0.0525 10.48258,0.049 20.9652,0.0812 31.44786,0.11194 11.2876,0.0331 22.57516,0.0693 33.86269,0.12413 4.88926,0.0232 9.77841,0.037 14.66771,0.0435 3.06212,0.006 6.12416,0.0202 9.18624,0.0363 1.4051,0.006 2.81022,0.008 4.21533,0.007 20.67417,-0.0126 41.70724,3.0235 57.57583,17.52324 3.2743,3.50386 5.79624,6.93825 7.86719,11.26563 0.55688,1.155 1.11375,2.31 1.6875,3.5 3.1601,1.05336 5.55532,1.20033 8.875,1.25 1.02867,0.0258 2.05735,0.0516 3.11719,0.0781 4.18571,-0.45662 6.73051,-1.97587 9.60547,-5.01953 0.7251,-0.92619 0.7251,-0.92619 1.46484,-1.87109 11.98272,-14.01412 28.53477,-23.86457 47.0468,-25.75503 8.63736,-0.62422 17.2208,-0.8278 25.87898,-0.82432 1.44059,-0.003 2.88118,-0.007 4.32177,-0.0105 3.07019,-0.008 6.14038,-0.013 9.21058,-0.0163 4.85872,-0.006 9.71737,-0.0226 14.57605,-0.0413 1.67087,-0.006 3.34174,-0.0127 5.01261,-0.019 0.83578,-0.003 1.67156,-0.006 2.53267,-0.01 11.28975,-0.0419 22.57945,-0.0751 33.86927,-0.0874 7.64869,-0.008 15.29719,-0.0308 22.94578,-0.0694 4.03765,-0.0197 8.07503,-0.0322 12.11273,-0.0272 3.78911,0.005 7.5777,-0.009 11.36671,-0.037 1.3875,-0.007 2.77505,-0.007 4.16255,2e-4 9.80378,0.2308 9.80378,0.2308 17.901,-4.54074 1.84353,-1.75797 1.84353,-1.75797 3.25,-3.6875 0.47953,-0.602 0.95907,-1.20399 1.45313,-1.82422 4.68856,-8.99583 3.60432,-19.82031 3.61572,-29.67603 0.009,-1.84367 0.0195,-3.68734 0.0304,-5.531 0.0272,-4.98484 0.0424,-9.96965 0.0554,-14.95454 0.0157,-5.21705 0.0424,-10.43403 0.068,-15.65104 0.0467,-9.87011 0.0835,-19.74023 0.11667,-29.61039 0.0383,-11.24066 0.0877,-22.48126 0.13799,-33.72187 0.10322,-23.11443 0.19251,-46.2289 0.27259,-69.34342 1.89812,-0.0544 3.79669,-0.093 5.69531,-0.125 1.58579,-0.0348 1.58579,-0.0348 3.20362,-0.0703 5.81045,0.36596 9.98776,2.94111 13.91748,7.13281 4.77411,6.07406 6.48464,11.13804 6.44429,18.88555 0.004,0.78126 0.008,1.56251 0.0116,2.36745 0.0103,2.61455 0.006,5.22887 0.002,7.84344 0.004,1.87611 0.01,3.75223 0.0155,5.62834 0.0134,5.09527 0.014,10.19047 0.0114,15.28576 -10e-4,4.25668 0.004,8.51335 0.009,12.77003 0.0111,10.04703 0.0115,20.09403 0.005,30.14106 -0.006,10.35358 0.006,20.70702 0.0276,31.06057 0.0176,8.89616 0.0236,17.79227 0.0204,26.68845 -0.002,5.30996 8e-4,10.61982 0.0147,15.92976 0.0126,4.99788 0.0106,9.99554 -0.002,14.99341 -0.002,1.82928 3.5e-4,3.65858 0.009,5.48784 0.0538,12.82349 -0.0751,24.19175 -9.38454,33.98085 -6.39853,5.78074 -13.30184,7.30704 -21.84923,7.25828 -0.75987,0.004 -1.51975,0.007 -2.30265,0.0111 -2.53009,0.01 -5.05996,0.006 -7.59006,0.002 -1.82054,0.004 -3.64109,0.01 -5.46163,0.0158 -3.91283,0.0115 -7.82561,0.017 -11.73846,0.0179 -6.19031,0.002 -12.38052,0.02 -18.5708,0.0407 -15.37441,0.0491 -30.74886,0.0801 -46.12334,0.10131 -11.95195,0.0165 -23.9038,0.0394 -35.85568,0.083 -6.15041,0.0217 -12.30063,0.0298 -18.45107,0.0276 -3.82992,0.002 -7.65972,0.0157 -11.4896,0.0332 -1.77206,0.006 -3.54415,0.006 -5.31621,10e-4 -2.42529,-0.006 -4.84983,0.006 -7.27506,0.0228 -0.69563,-0.006 -1.39127,-0.0124 -2.10799,-0.0188 -5.26714,0.0657 -9.12276,1.26606 -13.86822,3.4041 -2.41194,2.61209 -2.41194,2.61209 -4.125,5.75 -0.66515,1.06992 -1.33031,2.13984 -2.01562,3.24218 -0.92039,1.48887 -0.92039,1.48887 -1.85938,3.00782 -6.89586,9.90826 -17.98857,14.87718 -29.5039,17.58984 -12.31362,2.02336 -22.78595,-0.82648 -32.9961,-7.77344 -6.0015,-4.36046 -10.3391,-8.77796 -14.82031,-14.70312 -4.27477,-5.37825 -9.12564,-8.23488 -15.67969,-10.11328 -3.82119,-0.43387 -3.82119,-0.43387 -7.79071,-0.35836 -0.74157,-0.002 -1.48315,-0.005 -2.2472,-0.007 -2.46252,-0.005 -4.92443,0.012 -7.38689,0.0285 -1.77479,8.1e-4 -3.54958,2.1e-4 -5.32437,-0.002 -3.81191,-0.002 -7.62366,0.006 -11.43554,0.0198 -6.03608,0.0212 -12.07197,0.0164 -18.10807,0.007 -17.16092,-0.0228 -34.32172,-0.011 -51.4826,0.0271 -9.48572,0.0209 -18.971203,0.0201 -28.456917,-0.004 -5.9915,-0.0136 -11.982147,-6.1e-4 -17.973561,0.0326 -3.73951,0.0144 -7.478645,0.004 -11.218129,-0.014 -1.72364,-0.003 -3.447336,0.004 -5.170883,0.0221 -10.332693,0.10296 -18.648237,-0.50261 -27.405125,-6.75223 -7.741961,-7.8333 -10.149919,-17.01739 -10.147171,-27.79854 -0.0037,-0.77859 -0.0074,-1.55717 -0.01114,-2.35935 -0.011,-2.60534 -0.01487,-5.21064 -0.01869,-7.81599 -0.0063,-1.86951 -0.01291,-3.73902 -0.01991,-5.60852 -0.02101,-6.13529 -0.0314,-12.27057 -0.04137,-18.40589 -0.004,-2.11378 -0.0082,-4.22757 -0.01235,-6.34136 -0.01904,-9.92907 -0.03328,-19.85813 -0.04161,-29.78721 -0.0098,-11.45665 -0.03611,-22.91311 -0.0765,-34.3697 -0.03016,-8.8596 -0.04497,-17.71914 -0.04828,-26.5788 -0.0023,-5.28982 -0.0113,-10.57944 -0.03646,-15.86921 -0.02329,-4.97656 -0.02751,-9.95277 -0.01724,-14.92937 4.96e-4,-1.82368 -0.0058,-3.64738 -0.01956,-5.47101 -0.01774,-2.4956 -0.0106,-4.98997 0.0025,-7.48557 -0.01097,-0.71646 -0.02194,-1.43291 -0.03324,-2.17108 0.08055,-6.38253 2.385582,-11.25287 6.231697,-16.21418 5.808323,-5.6038 9.724487,-7.94675 18,-7.85937 z"
     fill="#8bcdeb"
     id="path6" />
  <path
     d="m 454.38719,202.0676 c 4.81919,4.08901 7.44618,9.03078 10.44922,14.55078 0.51176,0.80824 1.02352,1.61648 1.55078,2.44922 0.66,0 1.32,0 2,0 4.81729,11.55486 7.9617,23.14089 10.46387,35.39892 0.47829,2.32046 0.99029,4.63011 1.51269,6.94092 6.88198,32.11332 -1.10655,65.65369 -18.60546,93.10547 -10.46063,15.88289 -22.7085,29.11584 -39.3711,38.55469 -0.88156,0.50563 -1.76311,1.01127 -2.67139,1.53223 -24.16795,13.77213 -45.96284,22.62438 -74.0437,22.61303 -1.48421,0.003 -2.96842,0.006 -4.45263,0.0102 -4.01488,0.009 -8.02973,0.0112 -12.04461,0.0118 -2.51549,7.1e-4 -5.03097,0.003 -7.54646,0.005 -8.79647,0.009 -17.59293,0.0133 -26.3894,0.0126 -8.16487,-6e-4 -16.32966,0.01 -24.49451,0.0257 -7.03643,0.0131 -14.07285,0.0184 -21.10929,0.0178 -4.19056,-2.6e-4 -8.38106,0.002 -12.57161,0.0132 -3.94894,0.01 -7.89776,0.01 -11.84671,0.002 -1.43695,-10e-4 -2.8739,0.001 -4.31084,0.007 -13.29048,0.0529 -26.09056,-1.35867 -39.01885,-4.50187 -1.33744,-0.32424 -1.33744,-0.32424 -2.7019,-0.65503 -7.94635,-2.00355 -15.33301,-4.68259 -22.7981,-8.09497 -0.6318,-0.28182 -1.2636,-0.56364 -1.91455,-0.854 -16.62828,-7.48411 -30.74946,-17.7391 -43.08545,-31.14469 0.66,-0.33 1.32,-0.66 2,-1 1.2375,0.94359 1.2375,0.94359 2.5,1.90625 8.69353,6.4975 17.5517,11.7506 27.5,16.09375 0.64743,0.28359 1.29486,0.56719 1.96191,0.85937 23.05991,9.7823 48.03559,9.7419 72.64046,9.61207 4.13364,-0.0179 8.26728,-0.014 12.40096,-0.0133 6.92686,-0.002 13.85355,-0.019 20.78036,-0.0465 7.95328,-0.0315 15.90636,-0.042 23.8597,-0.0405 8.55842,10e-4 17.11676,-0.0126 25.67515,-0.0309 2.42898,-0.004 4.85795,-0.006 7.28694,-0.006 30.64241,0.30849 30.64241,0.30849 60.58202,-5.45872 1.51135,-0.45524 1.51135,-0.45524 3.05322,-0.91968 8.7901,-2.75593 16.76593,-6.41502 24.75928,-10.95584 0.89203,-0.47953 1.78406,-0.95906 2.70313,-1.45313 7.70109,-4.32254 14.48607,-9.9653 21.29687,-15.54687 0.80051,-0.65484 1.60102,-1.30969 2.42578,-1.98438 4.67736,-3.95985 8.70251,-8.27119 12.57422,-13.01562 0.77344,-0.93586 1.54688,-1.87172 2.34375,-2.83594 13.22552,-16.35835 22.74324,-35.71592 27.65625,-56.16406 0.4486,-1.72284 0.4486,-1.72284 0.90625,-3.48047 5.99349,-26.33249 3.51564,-58.59002 -11.02344,-81.95313 -0.88281,-1.5664 -0.88281,-1.5664 -0.88281,-3.5664 z"
     fill="#3c9ad8"
     id="path7" />
  <path
     d="m 216.07469,213.2551 c 9.53711,8.05545 17.57917,18.02683 19.3125,30.8125 0.8376,10.90086 0.98601,20.48256 -5,30 -0.44601,0.78504 -0.89203,1.57007 -1.35156,2.3789 -6.34678,10.47751 -16.06269,17.75548 -27.89844,20.9336 -14.58676,2.64513 -27.94399,0.0332 -40.17969,-8.33203 -9.73338,-7.49974 -16.3174,-15.72394 -18.57031,-27.98047 -0.27691,-2.79907 -0.335,-5.56351 -0.3125,-8.375 0.006,-0.7446 0.0113,-1.48919 0.0171,-2.25635 0.25535,-11.617 4.56973,-22.78696 12.73291,-31.24365 1.16549,-1.06624 2.3525,-2.10956 3.5625,-3.125 0.81598,-0.6903 0.81598,-0.6903 1.64844,-1.39453 15.3197,-11.90334 40.42214,-12.76134 56.03906,-1.41797 z"
     fill="#093164"
     id="path8" />
  <path
     d="m 396.38719,216.0676 c 9.2397,8.40884 15.21292,19.18656 16.33594,31.76172 0.14289,14.36082 -3.27434,26.35686 -13.17969,37.26953 -10.5175,9.82782 -22.13389,13.50629 -36.26953,13.28125 -9.92472,-0.79797 -18.0871,-4.23734 -25.88672,-10.3125 -0.56332,-0.4125 -1.12664,-0.825 -1.70703,-1.25 -6.65224,-5.1197 -9.89728,-11.64006 -13.17969,-19.19922 -1.0345,-2.47445 -1.0345,-2.47445 -2.15307,-4.44751 -3.07695,-6.73987 -2.323,-17.58345 -0.23072,-24.52271 5.25045,-13.02568 14.28384,-24.02056 27.30957,-29.83838 16.72174,-6.32894 34.94047,-3.61061 48.96094,7.25782 z"
     fill="#093164"
     id="path9" />
  <path
     d="m 196.61781,139.92043 c 0.70564,-0.004 1.41128,-0.007 2.1383,-0.0112 2.35311,-0.011 4.70617,-0.0149 7.0593,-0.0187 1.69255,-0.006 3.38511,-0.0129 5.07765,-0.0199 5.55272,-0.021 11.10544,-0.0314 16.65819,-0.0414 1.91943,-0.004 3.83886,-0.008 5.75828,-0.0123 9.02888,-0.019 18.05775,-0.0333 27.08664,-0.0416 10.37719,-0.01 20.75416,-0.036 31.13128,-0.0765 8.04707,-0.0303 16.09409,-0.045 24.14122,-0.0483 4.79277,-0.002 9.58531,-0.0111 14.37802,-0.0365 38.58876,-0.19375 71.03435,4.7285 101.3405,30.45349 0.79148,0.65097 1.58297,1.30195 2.39844,1.97265 7.71924,6.49186 17.61329,15.76236 19.60156,26.02735 -3.54434,-1.41774 -4.33806,-2.67612 -6,-6 -0.87205,-0.41766 -0.87205,-0.41766 -1.76172,-0.84375 -2.85119,-1.47287 -4.74846,-3.42113 -7.05078,-5.65625 -23.82665,-22.23333 -55.39754,-32.04139 -87.48486,-31.87232 -1.65303,-0.002 -3.30606,-0.006 -4.95908,-0.0111 -4.43382,-0.009 -8.86742,-8e-5 -13.30123,0.0133 -4.67209,0.0114 -9.34417,0.007 -14.01628,0.005 -7.83883,-8.8e-4 -15.67757,0.0101 -23.51638,0.0286 -9.02564,0.0212 -18.05115,0.0247 -27.0768,0.0184 -8.73359,-0.006 -17.46714,-1e-5 -26.20072,0.0112 -3.69418,0.005 -7.38833,0.006 -11.0825,0.003 -4.35865,-0.002 -8.71716,0.006 -13.07578,0.0221 -1.58691,0.004 -3.17384,0.005 -4.76076,0.002 -35.07893,-0.0528 -64.00638,12.2018 -89.23655,36.63035 -24.750058,25.09116 -35.645888,60.97635 -35.789058,95.39844 -0.006,1.29108 -0.0116,2.58215 -0.0176,3.91235 0.18786,24.50837 7.23254,46.65898 18.115718,68.4065 0.4291,0.86931 0.8582,1.73862 1.3003,2.63428 0.39236,0.7802 0.78471,1.56041 1.18896,2.36425 0.35893,0.95665 0.35893,0.95665 0.7251,1.93262 -0.33,0.66 -0.66,1.32 -1,2 -24.799608,-26.0879 -32.798228,-62.17547 -32.343748,-97.22656 1.02859,-29.73487 12.88216,-60.29456 32.343748,-82.77344 0.42749,-0.5029 0.85497,-1.00579 1.29541,-1.52393 21.01151,-24.59257 53.72643,-45.51054 86.93523,-45.62326 z"
     fill="#fbfcfd"
     id="path10" />
  <path
     d="m 240.50438,319.42063 c 0.90954,-0.009 1.81907,-0.0175 2.75617,-0.0266 3.00103,-0.022 6.00059,-0.007 9.00164,0.009 2.08839,-0.003 4.17677,-0.008 6.26514,-0.0145 4.3747,-0.007 8.74889,0.003 13.12354,0.0267 5.60591,0.0285 11.21062,0.0121 16.81649,-0.0179 4.31177,-0.0181 8.62326,-0.0123 12.93503,6.4e-4 2.06686,0.003 4.13374,-7.5e-4 6.20056,-0.0124 2.88971,-0.0127 5.77749,0.007 8.66706,0.0345 1.2797,-0.0152 1.2797,-0.0152 2.58526,-0.0307 4.29295,0.0766 6.03837,0.30243 9.56244,2.9815 2.5929,3.54957 2.68989,6.52257 2.53198,10.75864 -0.0166,0.75152 -0.0332,1.50305 -0.0503,2.27734 -0.44024,10.69367 -4.06935,19.20497 -10.5122,27.66016 -0.7425,1.03125 -1.485,2.0625 -2.25,3.125 -9.66798,10.10743 -22.85347,15.90666 -36.75,16.875 -16.44355,0.30058 -29.80322,-5.01827 -41.6875,-16.25 -9.37317,-9.76577 -13.47383,-20.18501 -13.8125,-33.5625 -0.0308,-0.72969 -0.0616,-1.45938 -0.0933,-2.21118 -8.5e-4,-3.6636 0.3905,-5.69799 2.56054,-8.67685 4.12968,-3.13121 7.09879,-3.00637 12.1499,-2.94644 z"
     fill="#083264"
     id="path11" />
  <path
     d="m 217.38719,435.0676 c 40.26,0 80.52,0 122,0 0.495,6.435 0.495,6.435 1,13 -0.96937,0.26812 -1.93875,0.53625 -2.9375,0.8125 -14.74789,4.24366 -28.14213,10.36125 -40.0625,20.1875 -0.61875,0.50531 -1.2375,1.01062 -1.875,1.53125 -6.54845,5.94211 -12.1845,14.58775 -16.125,22.46875 -0.66,0 -1.32,0 -2,0 -1.04175,-1.54288 -2.00627,-3.13801 -2.9375,-4.75 -13.10726,-21.12934 -33.61188,-33.45718 -57.0625,-40.25 0,-4.29 0,-8.58 0,-13 z"
     fill="#1f89ce"
     id="path12" />
  <path
     d="m 382.62156,227.32151 c 6.52972,4.50452 11.11221,10.92993 12.76563,18.74609 0.89599,9.48372 -0.65034,16.80225 -5.8125,24.8125 -6.33784,6.33784 -13.09543,9.69472 -22.0625,10.5625 -8.02094,-0.36823 -16.36265,-2.56943 -22.125,-8.375 -6.17889,-7.48045 -8.57114,-14.77066 -8.30469,-24.42187 0.93021,-7.87102 4.38708,-13.56607 10.14844,-18.88672 10.54249,-8.26975 23.6863,-9.00584 35.39062,-2.4375 z"
     fill="#fcfdfd"
     id="path13" />
  <path
     d="m 207.69969,228.7551 c 5.41705,4.41024 9.23915,10.46574 10.6875,17.3125 0.77246,9.73855 -0.43319,17.48631 -6.42969,25.33203 -5.32736,5.65866 -11.82691,9.05765 -19.57031,9.66797 -8.80302,0.20682 -16.4348,-1.89906 -23.07422,-7.86328 -6.54205,-7.06322 -9.12387,-14.549 -8.92578,-24.13672 1.22775,-8.08167 4.81985,-14.57365 11.14453,-19.75782 11.36844,-8.01794 24.58513,-8.56015 36.16797,-0.55468 z"
     fill="#fdfdfe"
     id="path14" />
  <path
     d="m 492.38719,233.0676 c 3.89544,-0.14554 7.79018,-0.23415 11.6875,-0.3125 1.65419,-0.0628 1.65419,-0.0628 3.3418,-0.12696 1.60005,-0.0242 1.60005,-0.0242 3.23242,-0.0488 0.97928,-0.0262 1.95857,-0.0524 2.96753,-0.0794 3.94533,0.80826 5.27337,2.44387 7.77075,5.56763 0.49046,2.84406 0.67644,5.08723 0.63111,7.92382 0.007,0.78274 0.0143,1.56548 0.0217,2.37194 0.0169,2.57909 -0.003,5.15645 -0.0239,7.73549 8.2e-4,1.79691 0.003,3.59383 0.007,5.39074 0.003,3.76273 -0.0118,7.52486 -0.0393,11.28748 -0.0341,4.81889 -0.0281,9.63672 -0.009,14.45566 0.0106,3.70957 0.002,7.41889 -0.0134,11.12843 -0.005,1.77657 -0.005,3.55317 0.002,5.32974 0.005,2.48485 -0.0149,4.96819 -0.0423,7.45287 0.007,0.73158 0.0131,1.46315 0.0198,2.2169 -0.067,3.5876 -0.48746,5.60236 -2.41475,8.66669 -2.13847,2.04024 -2.13847,2.04024 -4.88749,2.60786 -1.02642,-0.0262 -2.05283,-0.0524 -3.11035,-0.0793 -1.11504,-0.0161 -2.23008,-0.0322 -3.37891,-0.0488 -1.15887,-0.0419 -2.31773,-0.0838 -3.51172,-0.12694 -1.17433,-0.0226 -2.34867,-0.0451 -3.55859,-0.0684 -2.89842,-0.0589 -5.79427,-0.14113 -8.69141,-0.24414 0.11594,-0.59426 0.23187,-1.18852 0.35132,-1.80078 0.53148,-2.73255 1.05885,-5.46587 1.58618,-8.19922 0.1824,-0.93457 0.36481,-1.86914 0.55274,-2.83203 4.49232,-23.36008 4.76791,-49.93069 -1.9043,-72.95313 -0.58594,-2.21484 -0.58594,-2.21484 -0.58594,-5.21484 z"
     fill="#fca75b"
     id="path15" />
  <path
     d="m 50.152812,229.96994 c 0.889453,0.003 1.778906,0.006 2.695312,0.01 1.380586,0.0126 1.380586,0.0126 2.789063,0.0254 0.935859,0.005 1.871719,0.009 2.835937,0.0137 2.304753,0.0118 4.609375,0.0282 6.914063,0.0488 -0.146228,0.71543 -0.292456,1.43086 -0.443115,2.16797 -0.667902,3.27672 -1.331177,6.55436 -1.994385,9.83203 -0.230098,1.12535 -0.460195,2.25071 -0.697266,3.41016 -2.170653,10.75889 -3.047089,20.74087 -3.052734,31.71484 -0.01837,1.84465 -0.01837,1.84465 -0.03711,3.72657 -0.01348,8.55779 0.847393,16.71109 2.224609,25.14843 0.217619,1.54856 0.429688,3.09792 0.632813,4.64844 0.332946,2.52088 0.666291,5.04172 1,7.5625 0.121171,0.92039 0.242343,1.84078 0.367187,2.78906 -4.124941,0.0579 -8.249779,0.0935 -12.375,0.125 -1.175625,0.0168 -2.35125,0.0335 -3.5625,0.0508 -1.682226,0.01 -1.682226,0.01 -3.398437,0.0195 -1.03689,0.0105 -2.07378,0.0209 -3.14209,0.0317 -2.521973,-0.22705 -2.521973,-0.22705 -4.521973,-2.22705 -0.214063,-2.55206 -0.3041,-4.99702 -0.306396,-7.55151 -0.0083,-0.77909 -0.01665,-1.55818 -0.02522,-2.36087 -0.02417,-2.58525 -0.03288,-5.17024 -0.03947,-7.75559 -0.009,-1.79641 -0.01809,-3.59282 -0.02736,-5.38923 -0.01651,-3.77205 -0.02419,-7.54401 -0.02708,-11.31609 -0.0054,-4.82441 -0.043,-9.64798 -0.08874,-14.47215 -0.02981,-3.71388 -0.03698,-7.42756 -0.03798,-11.14155 -0.0042,-1.77776 -0.01661,-3.55552 -0.03752,-5.33316 -0.02698,-2.49441 -0.02207,-4.98688 -0.0096,-7.48136 -0.01483,-0.7291 -0.02967,-1.4582 -0.04495,-2.2094 0.06966,-4.91067 1.373655,-7.80691 4.181014,-11.64841 2.911113,-2.66716 6.456329,-2.46252 10.228927,-2.43833 z"
     fill="#fda75b"
     id="path16" />
  <path
     d="m 121.16868,610.45237 c 0.9682,-0.006 1.93641,-0.0111 2.93395,-0.0168 3.19041,-0.0118 6.3794,0.0125 9.56971,0.0383 2.22147,0.002 4.44295,0.002 6.66442,-1.2e-4 4.6512,0.002 9.30192,0.0203 13.95302,0.0519 5.961,0.0397 11.92137,0.044 17.88248,0.0365 4.58538,-0.003 9.17062,0.009 13.75597,0.0261 2.19803,0.007 4.39607,0.0101 6.59411,0.009 3.07121,0.002 6.14167,0.0232 9.21275,0.0501 0.90767,-0.003 1.81534,-0.006 2.75052,-0.009 4.76741,0.0644 8.05174,0.28731 11.90158,3.4288 1.56935,3.13871 1.35201,5.53856 1,9 -2.00237,2.8235 -3.59862,4.68861 -7.07501,5.46108 -2.60424,0.19143 -5.16534,0.21437 -7.77656,0.18589 -0.98756,0.009 -1.97512,0.0175 -2.99261,0.0266 -3.26072,0.022 -6.52009,0.007 -9.78082,-0.01 -2.26775,0.003 -4.53549,0.008 -6.80323,0.0145 -4.75131,0.007 -9.50215,-0.003 -14.25341,-0.0267 -6.09016,-0.0285 -12.17921,-0.0121 -18.26932,0.0179 -4.68235,0.0181 -9.36443,0.0123 -14.04678,-6.4e-4 -2.24549,-0.003 -4.491,7.6e-4 -6.73645,0.0124 -3.13872,0.0127 -6.27566,-0.007 -9.41425,-0.0345 -0.92794,0.0101 -1.85589,0.0202 -2.81195,0.0307 -4.4787,-0.0736 -6.44117,-0.22547 -10.11237,-2.99932 -1.92724,-2.67832 -1.92724,-2.67832 -2.61474,-6.17832 0.74652,-3.80046 1.75387,-5.11793 4.77502,-7.46882 3.70221,-1.99614 7.57821,-1.70666 11.69397,-1.64638 z"
     fill="#072f62"
     id="path17" />
  <path
     d="m 115.62422,517.79345 c 0.83824,-0.01 1.67649,-0.0199 2.54013,-0.0302 1.3669,-10e-4 1.3669,-10e-4 2.76142,-0.002 1.44945,-0.0125 1.44945,-0.0125 2.92819,-0.0252 3.19601,-0.0241 6.39182,-0.0329 9.58792,-0.0395 2.22193,-0.009 4.44387,-0.0181 6.6658,-0.0274 4.65878,-0.0165 9.31748,-0.0242 13.97629,-0.0271 5.9678,-0.005 11.93493,-0.0431 17.90254,-0.0887 4.58968,-0.0298 9.1792,-0.037 13.76897,-0.038 2.20003,-0.004 4.40006,-0.0167 6.6,-0.0375 3.07862,-0.0269 6.15567,-0.0221 9.23435,-0.01 1.36083,-0.0223 1.36083,-0.0223 2.74914,-0.045 4.26641,0.0494 7.18383,0.29112 10.61759,2.96303 2.43063,2.68129 2.43063,2.68129 3.11813,6.18129 -0.88507,4.50581 -2.03181,5.73787 -5.6875,8.5 -3.28401,0.73132 -6.49792,0.68355 -9.85156,0.64697 -0.98756,0.009 -1.97513,0.0175 -2.99262,0.0266 -3.26072,0.022 -6.52008,0.007 -9.78082,-0.01 -2.26774,0.003 -4.53548,0.008 -6.80322,0.0145 -4.75132,0.007 -9.50216,-0.003 -14.25342,-0.0267 -6.09015,-0.0285 -12.1792,-0.0121 -18.26932,0.0179 -4.68234,0.0181 -9.36443,0.0123 -14.04678,-6.4e-4 -2.24548,-0.003 -4.49099,7.6e-4 -6.73645,0.0124 -3.13872,0.0127 -6.27566,-0.007 -9.41425,-0.0345 -0.92794,0.0101 -1.85588,0.0202 -2.81195,0.0307 -4.50199,-0.074 -6.44365,-0.22432 -10.12799,-3.02664 -2.32685,-3.22679 -2.49219,-4.75286 -1.91162,-8.65097 0.87367,-2.621 1.44126,-3.66344 3.81331,-5.09224 2.32861,-0.96667 3.91568,-1.16585 6.42372,-1.18191 z"
     fill="#072f62"
     id="path18" />
  <path
     d="m 350.43477,517.92716 c 0.82149,-0.006 1.64297,-0.0114 2.48935,-0.0173 0.89773,-10e-4 1.79546,-0.002 2.7204,-0.003 0.94826,-0.005 1.89651,-0.01 2.8735,-0.015 3.1413,-0.0146 6.28254,-0.0214 9.42386,-0.027 2.18092,-0.006 4.36184,-0.0115 6.54276,-0.0173 4.57478,-0.0105 9.14954,-0.0163 13.72433,-0.0198 5.86349,-0.005 11.72675,-0.0295 17.59016,-0.058 4.50556,-0.0186 9.01106,-0.0238 13.51666,-0.0254 2.16176,-0.003 4.32352,-0.0111 6.48525,-0.0242 3.02353,-0.017 6.04649,-0.0152 9.07004,-0.009 0.89368,-0.009 1.78737,-0.0184 2.70813,-0.0279 4.74973,0.032 7.98277,0.2469 11.80798,3.38437 2.32579,3.48868 2.41866,4.89718 2,9 -1.77984,3.13591 -2.52308,3.84103 -6,5 -1.38462,0.0982 -2.7734,0.14338 -4.16146,0.1539 -0.84673,0.009 -1.69346,0.0172 -2.56585,0.0261 -0.92578,0.004 -1.85156,0.009 -2.8054,0.0129 -0.97752,0.008 -1.95503,0.0164 -2.96217,0.0248 -3.23868,0.0248 -6.47731,0.0414 -9.71605,0.0558 -1.65795,0.008 -1.65795,0.008 -3.34939,0.0161 -5.84772,0.0267 -11.69542,0.0461 -17.54319,0.0605 -6.04524,0.0167 -12.08994,0.0615 -18.13497,0.11237 -4.64453,0.0336 -9.28892,0.0452 -13.93356,0.0509 -2.22878,0.007 -4.45755,0.022 -6.68621,0.0459 -3.1172,0.0315 -6.23292,0.0317 -9.35024,0.0243 -0.92174,0.0164 -1.84347,0.0328 -2.79314,0.0497 -4.47038,-0.0436 -6.40282,-0.18535 -10.07518,-2.94702 -2.51853,-3.51773 -2.61663,-5.44847 -1.92319,-9.68619 3.09942,-4.0613 6.06255,-5.11966 11.04758,-5.14044 z"
     fill="#072f62"
     id="path19" />
  <path
     d="m 350.43477,610.92716 c 0.82149,-0.006 1.64297,-0.0114 2.48935,-0.0173 0.89773,-10e-4 1.79546,-0.002 2.7204,-0.003 0.94826,-0.005 1.89651,-0.01 2.8735,-0.015 3.1413,-0.0146 6.28254,-0.0214 9.42386,-0.027 2.18092,-0.006 4.36184,-0.0115 6.54276,-0.0173 4.57478,-0.0105 9.14954,-0.0163 13.72433,-0.0198 5.86349,-0.005 11.72675,-0.0295 17.59016,-0.058 4.50556,-0.0186 9.01106,-0.0238 13.51666,-0.0254 2.16176,-0.003 4.32352,-0.0111 6.48525,-0.0242 3.02353,-0.017 6.04649,-0.0152 9.07004,-0.009 0.89368,-0.009 1.78737,-0.0184 2.70813,-0.0279 6.00573,0.0404 9.44864,1.02503 13.80798,5.38437 0,4.40251 -0.4593,6.40639 -3.45115,9.69102 -4.14142,3.22649 -8.25716,3.00558 -13.33034,2.94008 -0.9682,0.007 -1.9364,0.0143 -2.93394,0.0217 -3.19039,0.0169 -6.37938,-0.002 -9.56972,-0.0239 -2.22147,8.3e-4 -4.44295,0.003 -6.66442,0.007 -4.65119,0.003 -9.3019,-0.0118 -13.95301,-0.0393 -5.9611,-0.0341 -11.92135,-0.0281 -17.88249,-0.009 -4.5854,0.0106 -9.17059,0.002 -13.75597,-0.0134 -2.19803,-0.005 -4.39608,-0.005 -6.5941,10e-4 -3.07138,0.005 -6.14152,-0.0149 -9.21276,-0.0423 -0.90767,0.006 -1.81534,0.013 -2.75051,0.0198 -4.16899,-0.0632 -6.35264,-0.21132 -9.96553,-2.46156 -2.09014,-2.25813 -2.59896,-3.06774 -2.49856,-6.09166 0.1923,-3.03721 0.49164,-3.9047 2.375,-6.4375 3.07895,-2.19924 5.54966,-2.68757 9.23508,-2.70293 z"
     fill="#083064"
     id="path20" />
  <path
     d="m 287.93016,20.145716 c 6.10782,3.724031 11.17358,9.071511 13.45703,15.921875 0.7042,7.68845 0.44864,14.4895 -4,21 -6.00294,6.813079 -12.43657,9.985839 -21.4375,10.5625 -6.93297,-0.201931 -11.19093,-3.42694 -16.125,-8.015625 -4.27885,-4.635428 -6.53014,-10.285894 -6.8125,-16.546875 0.27414,-6.07871 2.46477,-12.021484 6.61719,-16.546875 7.93614,-6.560545 18.36397,-10.587842 28.30078,-6.375 z"
     fill="#fca55b"
     id="path21" />
  <path
     d="m 353.21702,564.42063 c 1.49576,-0.0131 1.49576,-0.0131 3.02173,-0.0265 3.29862,-0.022 6.5959,-0.007 9.89453,0.009 2.29159,-0.003 4.58319,-0.008 6.87477,-0.0145 4.80437,-0.007 9.60827,0.003 14.41258,0.0267 6.15856,0.0285 12.31603,0.0121 18.47455,-0.0179 4.73296,-0.0181 9.46566,-0.0123 14.19863,6.4e-4 2.2706,0.003 4.54123,-7.6e-4 6.81181,-0.0124 3.17474,-0.0127 6.34773,0.007 9.52234,0.0345 0.93886,-0.0101 1.87773,-0.0202 2.84505,-0.0307 4.52762,0.0736 6.50066,0.21005 10.20147,3.03057 1.91271,2.64707 1.91271,2.64707 2.47521,5.64707 -0.73009,3.89381 -1.61644,5.32052 -4.5625,8 -3.30425,0.75512 -6.56048,0.67259 -9.9375,0.6311 -1.00853,0.007 -2.01706,0.0143 -3.05615,0.0217 -3.33591,0.0169 -6.67048,-0.002 -10.00635,-0.0239 -2.31641,8.3e-4 -4.63282,0.003 -6.94922,0.007 -4.85565,0.003 -9.71084,-0.0119 -14.56641,-0.0393 -6.22804,-0.0341 -12.45526,-0.0281 -18.68335,-0.009 -4.78351,0.0106 -9.56684,0.002 -14.35034,-0.0134 -2.29654,-0.005 -4.59311,-0.005 -6.88965,10e-4 -3.20828,0.005 -6.41538,-0.0149 -9.62353,-0.0423 -0.95181,0.006 -1.90363,0.013 -2.88428,0.0198 -6.39788,-0.0931 -6.39788,-0.0931 -9.64307,-2.37172 -2.09248,-3.23706 -1.9396,-5.40915 -1.41015,-9.1815 3.28802,-6.22434 7.48358,-5.71522 13.82983,-5.64695 z"
     fill="#072e60"
     id="path22" />
  <path
     d="m 120.23875,564.42063 c 0.98756,-0.009 1.97513,-0.0175 2.99262,-0.0265 3.26072,-0.022 6.52008,-0.007 9.78082,0.009 2.26774,-0.003 4.53548,-0.008 6.80322,-0.0145 4.75132,-0.007 9.50216,0.003 14.25342,0.0267 6.09015,0.0285 12.1792,0.0121 18.26932,-0.0179 4.68234,-0.0181 9.36443,-0.0123 14.04678,6.4e-4 2.24549,0.003 4.49099,-7.6e-4 6.73645,-0.0124 3.13872,-0.0127 6.27566,0.007 9.41425,0.0345 0.92794,-0.0101 1.85588,-0.0202 2.81195,-0.0307 4.50199,0.074 6.44365,0.22435 10.12799,3.02667 2.32685,3.22679 2.49219,4.75286 1.91162,8.65097 -1.4,3.7 -1.4,3.7 -4,5 -1.38454,0.1 -2.77371,0.13936 -4.16184,0.14717 -0.87204,0.007 -1.74408,0.0143 -2.64254,0.0217 -0.95901,0.003 -1.91801,0.005 -2.90607,0.008 -1.51236,0.01 -1.51236,0.01 -3.05527,0.0199 -3.34632,0.0198 -6.6926,0.0314 -10.03897,0.0414 -1.14056,0.004 -2.28112,0.008 -3.45624,0.0123 -6.0346,0.0209 -12.06918,0.0352 -18.10382,0.0445 -6.24369,0.0111 -12.48703,0.0455 -18.7306,0.0852 -4.79204,0.0261 -9.58399,0.0345 -14.37609,0.0381 -2.30216,0.005 -4.60431,0.0165 -6.9064,0.035 -3.21793,0.0243 -6.43493,0.0235 -9.65292,0.0165 -0.95496,0.0128 -1.90991,0.0256 -2.8938,0.0388 -6.42226,-0.0508 -6.42226,-0.0508 -9.66336,-2.32332 -2.11265,-3.26974 -2.01312,-5.37891 -1.41208,-9.18547 4.18783,-5.85202 8.20076,-5.71945 14.85156,-5.64691 z"
     fill="#072e60"
     id="path23" />
  <path
     d="m 243.38719,337.0676 c 22.77,0 45.54,0 69,0 -3.70622,11.11866 -7.93668,19.11637 -18.07031,25.2539 -8.60547,4.18605 -19.33128,4.46772 -28.41016,1.67578 -10.85853,-5.03703 -17.84623,-12.97221 -22.51953,-23.92968 0,-0.99 0,-1.98 0,-3 z"
     fill="#b34535"
     id="path24" />
  <path
     d="m 111.38719,611.0676 c 33,0 66,0 100,0 0,0.99 0,1.98 0,3 -33,0 -66,0 -100,0 0,-0.99 0,-1.98 0,-3 z m -2,3 c 0.66,0.33 1.32,0.66 2,1 -1.32,0.99 -2.64,1.98 -4,3 0.66,-1.32 1.32,-2.64 2,-4 z"
     fill="#113c6c"
     id="path25" />
  <path
     d="m 287.38719,20.067596 c 5.97106,0.974868 8.55655,3.146559 12.42188,7.734375 5.07759,7.28961 5.47428,13.562921 4.57812,22.265625 -0.89724,3.058331 -2.15709,5.413888 -4,8 -0.7425,1.0725 -1.485,2.145 -2.25,3.25 -5.62825,5.628251 -11.8487,7.691795 -19.75,7.75 -3.5625,-0.4375 -3.5625,-0.4375 -6,-1 0,-0.33 0,-0.66 0,-1 1.16016,-0.146953 1.16016,-0.146953 2.34375,-0.296875 9.44279,-1.355648 16.46155,-3.179737 22.46875,-10.933594 3.9967,-5.955601 3.91721,-12.828224 3.1875,-19.769531 -1.74399,-6.034599 -5.06762,-9.326954 -10,-13 -1.0168,-0.982909 -2.02738,-1.973347 -3,-3 z"
     fill="#554b59"
     id="path26" />
  <path
     d="m 111.38719,371.0676 c 3.96139,1.38684 6.87435,3.253 10.1875,5.8125 5.01642,3.74186 10.11729,6.61785 15.8125,9.1875 -0.33,0.66 -0.66,1.32 -1,2 -0.66,0 -1.32,0 -2,0 0.66,1.32 1.32,2.64 2,4 -9.99739,-3.5389 -17.97623,-12.33363 -25,-20 0,-0.33 0,-0.66 0,-1 z"
     fill="#3d9cdb"
     id="path27" />
  <path
     d="m 243.38719,337.0676 c 22.77,0 45.54,0 69,0 -3,9 -3,9 -5,10 1.875,-5.75 1.875,-5.75 3,-8 -22.11,0 -44.22,0 -67,0 0,-0.66 0,-1.32 0,-2 z"
     fill="#d3462c"
     id="path28" />
  <path
     d="m 287.38719,20.067596 c 5.97106,0.974868 8.55655,3.146559 12.42188,7.734375 3.70148,5.314011 4.94987,9.130419 4.76562,15.640625 -0.0271,1.245234 -0.0541,2.490469 -0.082,3.773437 -0.0348,0.941016 -0.0696,1.882032 -0.10547,2.851563 -0.66,0.33 -1.32,0.66 -2,1 0,-2.31 0,-4.62 0,-7 -0.33,0 -0.66,0 -1,0 -0.0748,-0.70125 -0.14953,-1.4025 -0.22656,-2.125 -1.06912,-7.71442 -3.2216,-13.332394 -9.5,-18.21875 -1.39758,-0.927301 -2.83221,-1.798373 -4.27344,-2.65625 0,-0.33 0,-0.66 0,-1 z"
     fill="#6d5556"
     id="path29" />
  <path
     d="m 436.38719,349.0676 c 0.33,0.99 0.66,1.98 1,3 -2.08024,2.1073 -4.16402,4.21089 -6.25,6.3125 -0.58652,0.5949 -1.17305,1.1898 -1.77734,1.80273 -2.85119,2.8672 -5.62378,5.58863 -8.97266,7.88477 -0.66,-0.33 -1.32,-0.66 -2,-1 6,-6 12,-12 18,-18 z"
     fill="#3392d3"
     id="path30" />
  <path
     d="m 252.38719,11.067596 c 0,3 0,3 -1.49609,4.753907 -0.961,0.895254 -0.961,0.895254 -1.94141,1.808593 -2.65211,2.440395 -2.65211,2.440395 -4.5625,5.4375 -0.66,0 -1.32,0 -2,0 -0.66,1.98 -1.32,3.96 -2,6 -1,-3 -1,-3 -0.10937,-5.15625 0.67289,-1.160156 0.67289,-1.160156 1.35937,-2.34375 0.43828,-0.773437 0.87656,-1.546875 1.32813,-2.34375 2.55247,-3.87078 5.40475,-5.876259 9.42187,-8.15625 z"
     fill="#092559"
     id="path31" />
  <path
     d="m 296.38719,60.067596 c 0,0.99 0,1.98 0,3 -5.98742,4.819145 -11.38023,6.293528 -18.9375,5.625 -1.68903,-0.1955 -3.37721,-0.399482 -5.0625,-0.625 0,-0.33 0,-0.66 0,-1 0.94102,-0.03738 1.88203,-0.07477 2.85156,-0.113281 1.24524,-0.06574 2.49047,-0.131484 3.77344,-0.199219 1.84465,-0.08701 1.84465,-0.08701 3.72656,-0.175781 5.44706,-0.763987 9.4158,-3.09305 13.64844,-6.511719 z"
     fill="#645358"
     id="path32" />
  <path
     d="m 143.38719,263.0676 c 0.66,0 1.32,0 2,0 0.23074,0.62906 0.46149,1.25812 0.69922,1.90625 2.21508,5.81348 4.79741,10.95355 8.30078,16.09375 -5.45666,-2.13059 -7.51412,-6.96667 -10,-12 -0.875,-3.625 -0.875,-3.625 -1,-6 z"
     fill="#22598f"
     id="path33" />
  <path
     d="m 287.38719,20.067596 c 6.93965,1.133004 9.81404,4.528982 14,10 -0.33,0.66 -0.66,1.32 -1,2 -0.72187,-0.7425 -1.44375,-1.485 -2.1875,-2.25 -2.50155,-2.445959 -5.07078,-4.585483 -7.8125,-6.75 -1.01739,-0.982305 -2.02596,-1.974696 -3,-3 z"
     fill="#825e54"
     id="path34" />
  <path
     d="m 111.38719,371.0676 c 4.66132,1.39419 7.23173,4.02848 10.3125,7.625 0.4544,0.51562 0.90879,1.03125 1.37695,1.5625 1.11163,1.26374 2.21223,2.53717 3.31055,3.8125 -3,0 -3,0 -5.91797,-2.58985 -1.0976,-1.10825 -2.18717,-2.2245 -3.26953,-3.34765 -0.55881,-0.56397 -1.11762,-1.12793 -1.69336,-1.70899 -4.11914,-4.19961 -4.11914,-4.19961 -4.11914,-5.35351 z"
     fill="#52aee5"
     id="path35" />
  <path
     d="m 319.38719,261.0676 c 2.76808,1.38403 2.91706,2.89035 4,5.75 0.33,0.86109 0.66,1.72218 1,2.60937 0.33,0.87141 0.66,1.74281 1,2.64063 0.66349,1.66793 1.32921,3.33499 2,5 -0.66,0 -1.32,0 -2,0 -1.00985,-1.9115 -2.00754,-3.82942 -3,-5.75 -0.55687,-1.06735 -1.11375,-2.13469 -1.6875,-3.23438 -1.3125,-3.01562 -1.3125,-3.01562 -1.3125,-7.01562 z"
     fill="#3a7fb7"
     id="path36" />
  <path
     d="m 271.38719,766.0676 c 4.62,0 9.24,0 14,0 -0.99,0.33 -1.98,0.66 -3,1 0,0.66 0,1.32 0,2 -3.63,0 -7.26,0 -11,0 0,-0.99 0,-1.98 0,-3 z"
     fill="#83c5e3"
     id="path37" />
  <path
     d="m 331.38719,694.0676 c -0.99,0.495 -0.99,0.495 -2,1 0,0.66 0,1.32 0,2 -4.29,0.66 -8.58,1.32 -13,2 0,-0.66 0,-1.32 0,-2 5.10334,-1.90525 9.46343,-3.42589 15,-3 z"
     fill="#102759"
     id="path38" />
  <path
     d="m 28.387192,219.0676 c 0.66,0.33 1.32,0.66 2,1 -3.625,5.875 -3.625,5.875 -7,7 -0.33,0.99 -0.66,1.98 -1,3 -0.33,-0.66 -0.66,-1.32 -1,-2 4.142857,-6.42857 4.142857,-6.42857 7,-9 z"
     fill="#092155"
     id="path39" />
  <path
     d="m 312.38719,337.0676 c -0.44909,1.482 -0.90956,2.96055 -1.375,4.4375 -0.25523,0.82371 -0.51047,1.64742 -0.77344,2.49609 -0.85156,2.06641 -0.85156,2.06641 -2.85156,3.06641 1.875,-5.75 1.875,-5.75 3,-8 -2.64,0 -5.28,0 -8,0 0,-0.33 0,-0.66 0,-1 7.75,-1 7.75,-1 10,-1 z"
     fill="#c5442e"
     id="path40" />
  <path
     d="m 448.38719,192.0676 c 0.99,0 1.98,0 3,0 0.66,1.98 1.32,3.96 2,6 -3.16116,-1.36984 -3.99271,-1.98907 -6,-5 0.33,-0.33 0.66,-0.66 1,-1 z"
     fill="#d2eaf5"
     id="path41" />
  <path
     d="m 107.38719,521.0676 c 0.66,0.99 1.32,1.98 2,3 -0.33,0.66 -0.66,1.32 -1,2 -0.66,0 -1.32,0 -2,0 0.33,1.65 0.66,3.3 1,5 -0.66,-0.33 -1.32,-0.66 -2,-1 -0.25,-5.625 -0.25,-5.625 2,-9 z"
     fill="#041647"
     id="path42" />
</svg>
